<svg width="17" height="22" viewBox="0 0 17 22" fill="none" xmlns="http://www.w3.org/2000/svg">
<path d="M15.9792 3.55319C15.9792 2.14528 14.8339 1 13.426 1H3.55319C2.14528 1 1 2.14528 1 3.55319V14.2916C1 15.2258 1.42221 16.091 2.17624 16.6786L8.24568 20.9231C8.31902 20.9742 8.40421 21 8.48961 21C8.57501 21 8.6602 20.9742 8.73354 20.9231L14.8209 16.6653C15.557 16.091 15.9792 15.2258 15.9792 14.2916V3.55319ZM3.55319 1.85106H13.426C14.2168 1.85106 14.8774 2.39552 15.0677 3.12766H1.91148C2.10178 2.39552 2.76241 1.85106 3.55319 1.85106ZM15.1282 14.2916C15.1282 14.9615 14.8252 15.5824 14.3151 15.9813L8.48961 20.055L2.68197 15.9946C2.15401 15.5824 1.85106 14.9615 1.85106 14.2916V3.97872H15.1282V14.2916Z" fill="white" stroke="white" strokeWidth="0.5"/>
</svg>
