<svg width="18" height="20" viewBox="0 0 18 20" fill="none" xmlns="http://www.w3.org/2000/svg">
<path d="M16.6152 8.43825C16.8741 9.14051 17.1486 10.1684 17.1479 11.4253C17.1472 12.1602 17.0529 13.3065 16.5436 14.5912C16.2414 15.353 15.5966 16.6589 14.2807 17.8315C13.8877 18.1819 12.5598 19.3006 10.5403 19.7744C9.7288 19.9645 9.02513 20 8.57398 20C8.36756 20 7.40851 19.9922 6.34164 19.7077C3.87238 19.0495 2.30471 17.3009 2.11177 17.0803C1.9394 16.8831 0.00711829 14.6082 2.47536e-05 11.4253C-0.00281266 10.2932 0.239077 9.37673 0.315687 9.1015C0.605812 8.06655 1.04136 7.26711 1.39816 6.72304C1.61451 6.39744 2.0607 6.30736 2.38629 6.52371C2.71188 6.73935 2.80197 7.18554 2.58562 7.51184C2.2735 7.98356 1.87485 8.70781 1.63296 9.66118C1.46058 10.3443 1.41731 10.9494 1.41944 11.4175C1.43363 13.9826 3.02258 15.9304 3.09848 16.0205C5.20242 18.5245 8.22639 18.5799 8.57327 18.5806C11.1844 18.5841 12.9117 17.1406 13.2976 16.8008C15.6767 14.7089 15.7299 11.8382 15.7306 11.4402C15.7363 8.42478 13.826 6.54854 13.4976 6.23713C13.3742 6.12009 11.3674 4.26867 8.55766 4.26655C7.48441 4.26584 6.60907 4.53539 6.41825 4.59569C5.49397 4.89007 4.80944 5.31852 4.37744 5.63773C4.05965 5.86685 3.61063 5.79378 3.38222 5.4767C3.1531 5.15962 3.22616 4.7106 3.54324 4.48148C4.01142 4.14454 4.69594 3.72247 5.5876 3.3912C6.8765 2.9131 7.98663 2.8521 8.57398 2.85139C10.3091 2.85068 11.6682 3.38056 12.4669 3.78348C13.6693 4.38927 14.4354 5.1277 14.7461 5.44762C15.1092 5.82216 16.0243 6.8337 16.6152 8.43825ZM7.19726 1.4258C6.80357 1.4258 6.48436 1.10659 6.48436 0.7129C6.48436 0.319209 6.80357 0 7.19726 0H9.95097C10.3447 0 10.6632 0.319209 10.6632 0.7129C10.6632 1.10659 10.3447 1.4258 9.95097 1.4258H7.19726ZM8.57369 7.10509C8.96597 7.10509 9.28305 7.42288 9.28305 7.81445V10.7164H12.1779C12.5695 10.7164 12.8873 11.0342 12.8873 11.4258C12.8873 11.8173 12.5695 12.1351 12.1779 12.1351H8.57369C8.18213 12.1351 7.86434 11.8173 7.86434 11.4258V7.81445C7.86434 7.42288 8.18213 7.10509 8.57369 7.10509Z" fill="white"/>
<path d="M16.6152 8.43825C16.8741 9.14051 17.1486 10.1684 17.1479 11.4253C17.1472 12.1602 17.0529 13.3065 16.5436 14.5912C16.2414 15.353 15.5966 16.6589 14.2807 17.8315C13.8877 18.1819 12.5598 19.3006 10.5403 19.7744C9.7288 19.9645 9.02513 20 8.57398 20C8.36756 20 7.40851 19.9922 6.34164 19.7077C3.87238 19.0495 2.30471 17.3009 2.11177 17.0803C1.9394 16.8831 0.00711829 14.6082 2.47536e-05 11.4253C-0.00281266 10.2932 0.239077 9.37673 0.315687 9.1015C0.605812 8.06655 1.04136 7.26711 1.39816 6.72304C1.61451 6.39744 2.0607 6.30736 2.38629 6.52371C2.71188 6.73935 2.80197 7.18554 2.58562 7.51184C2.2735 7.98356 1.87485 8.70781 1.63296 9.66118C1.46058 10.3443 1.41731 10.9494 1.41944 11.4175C1.43363 13.9826 3.02258 15.9304 3.09848 16.0205C5.20242 18.5245 8.22639 18.5799 8.57327 18.5806C11.1844 18.5841 12.9117 17.1406 13.2976 16.8008C15.6767 14.7089 15.7299 11.8382 15.7306 11.4402C15.7363 8.42478 13.826 6.54854 13.4976 6.23713C13.3742 6.12009 11.3674 4.26867 8.55766 4.26655C7.48441 4.26584 6.60907 4.53539 6.41825 4.59569C5.49397 4.89007 4.80944 5.31852 4.37744 5.63773C4.05965 5.86685 3.61063 5.79378 3.38222 5.4767C3.1531 5.15962 3.22616 4.7106 3.54324 4.48148C4.01142 4.14454 4.69594 3.72247 5.5876 3.3912C6.8765 2.9131 7.98663 2.8521 8.57398 2.85139C10.3091 2.85068 11.6682 3.38056 12.4669 3.78348C13.6693 4.38927 14.4354 5.1277 14.7461 5.44762C15.1092 5.82216 16.0243 6.8337 16.6152 8.43825ZM7.19726 1.4258C6.80357 1.4258 6.48436 1.10659 6.48436 0.7129C6.48436 0.319209 6.80357 0 7.19726 0H9.95097C10.3447 0 10.6632 0.319209 10.6632 0.7129C10.6632 1.10659 10.3447 1.4258 9.95097 1.4258H7.19726ZM8.57369 7.10509C8.96597 7.10509 9.28305 7.42288 9.28305 7.81445V10.7164H12.1779C12.5695 10.7164 12.8873 11.0342 12.8873 11.4258C12.8873 11.8173 12.5695 12.1351 12.1779 12.1351H8.57369C8.18213 12.1351 7.86434 11.8173 7.86434 11.4258V7.81445C7.86434 7.42288 8.18213 7.10509 8.57369 7.10509Z" stroke="white"/>
</svg>
