<svg width="22" height="22" viewBox="0 0 22 22" fill="none" xmlns="http://www.w3.org/2000/svg">
<path fill-rule="evenodd" clip-rule="evenodd" d="M11.0002 1C9.63001 1 8.50478 2.10773 8.47953 3.47442C7.80746 3.69993 7.17539 4.0123 6.5969 4.39654C6.54629 4.42898 6.50222 4.47157 6.46809 4.52104C6.43393 4.57052 6.40975 4.62683 6.39739 4.68566C6.38503 4.74449 6.38448 4.80578 6.3958 4.86482C6.40712 4.92385 6.4303 4.98058 6.46357 5.03065C6.49681 5.08073 6.54013 5.1241 6.59015 5.15743C6.64017 5.19076 6.69689 5.21403 6.75591 5.22544C6.81493 5.23685 6.8762 5.2364 6.93506 5.22408C6.9939 5.21179 7.05026 5.18769 7.09978 5.15362C7.57389 4.83872 8.08779 4.5786 8.63193 4.38343C8.98639 5.34803 9.91674 6.04036 11.0002 6.04036C12.0836 6.04036 13.0126 5.3477 13.3664 4.38322C13.9101 4.57716 14.4237 4.83775 14.8967 5.15483C14.946 5.18888 15.0023 5.21302 15.061 5.22539C15.1197 5.23775 15.1808 5.23834 15.2397 5.2272C15.2987 5.21598 15.3553 5.19294 15.4054 5.15985C15.4554 5.12676 15.4988 5.08365 15.5322 5.03382C15.5656 4.98399 15.589 4.92747 15.6006 4.86862C15.6122 4.80976 15.612 4.7486 15.5999 4.68982C15.5879 4.63104 15.5641 4.5747 15.5304 4.52509C15.4967 4.47549 15.453 4.43268 15.4027 4.39992C14.8242 4.01211 14.1913 3.69864 13.5186 3.47441C13.4933 2.10831 12.3702 1.00006 11.0001 1.00006L11.0002 1ZM11.0002 1.90897C11.8947 1.90897 12.6103 2.62409 12.6103 3.52138C12.6103 4.41589 11.8947 5.13143 11.0002 5.13143C10.1056 5.13143 9.38784 4.4153 9.38784 3.52138C9.38784 2.62469 10.1056 1.90897 11.0002 1.90897Z" fill="white" stroke="white" strokeWidth="0.5"/>
<path fill-rule="evenodd" clip-rule="evenodd" d="M4.76527 6.39345C4.69182 6.39526 4.61889 6.41517 4.55474 6.451C4.49061 6.48681 4.43536 6.53845 4.39532 6.60004C4.00829 7.17732 3.69734 7.80879 3.47224 8.47975C2.10655 8.50617 1 9.63099 1 11.0004C1 12.3687 2.10523 13.4906 3.46876 13.5188C3.69424 14.1929 4.00693 14.8272 4.39511 15.4073C4.42784 15.4576 4.47061 15.5013 4.52019 15.5351C4.56976 15.5688 4.62607 15.5926 4.68484 15.6047C4.74361 15.6167 4.80475 15.6169 4.86361 15.6047C4.92247 15.5931 4.97898 15.5698 5.02885 15.5364C5.07868 15.5031 5.12182 15.4597 5.15495 15.4097C5.18809 15.3597 5.21117 15.3031 5.22247 15.2442C5.23374 15.1853 5.23322 15.1241 5.2209 15.0654C5.20861 15.0067 5.18454 14.9505 5.15054 14.9011C4.83365 14.4275 4.5736 13.9132 4.37843 13.3677C5.34542 13.0152 6.0404 12.0849 6.0404 10.9997C6.0404 9.91553 5.34717 8.98465 4.38154 8.63072C4.57633 8.08751 4.83483 7.57597 5.15025 7.10552C5.19763 7.03697 5.22563 6.95519 5.23017 6.87199C5.23474 6.78879 5.21586 6.70442 5.17627 6.63111C5.13668 6.55779 5.07648 6.49573 5.00439 6.45392C4.93233 6.41211 4.84856 6.39068 4.76527 6.39271V6.39345ZM3.5213 9.38808C4.41525 9.38808 5.13143 10.1059 5.13143 11.0004C5.13143 11.8949 4.41584 12.6106 3.5213 12.6106C2.62404 12.6106 1.90897 11.8949 1.90897 11.0004C1.90897 10.1059 2.62463 9.38808 3.5213 9.38808H3.5213Z" fill="white" stroke="white" strokeWidth="0.5"/>
<path fill-rule="evenodd" clip-rule="evenodd" d="M17.2231 6.39356C17.141 6.39379 17.059 6.41703 16.9888 6.45974C16.9186 6.50244 16.8603 6.56459 16.8222 6.63741C16.7841 6.71022 16.7663 6.79351 16.7713 6.87554C16.7763 6.95757 16.804 7.0381 16.8506 7.1058C17.1659 7.57797 17.4243 8.08934 17.6191 8.63191C16.6538 8.98602 15.9609 9.91675 15.9609 11.0007C15.9609 12.0854 16.6526 13.0172 17.6213 13.3696C17.4263 13.9142 17.1667 14.4282 16.8504 14.9027C16.8164 14.9522 16.7924 15.0084 16.7801 15.0672C16.7679 15.1259 16.7674 15.1871 16.7788 15.246C16.7901 15.305 16.8133 15.3616 16.8465 15.4116C16.8797 15.4616 16.923 15.5048 16.9729 15.5381C17.0228 15.5714 17.0794 15.5947 17.1383 15.6061C17.1972 15.6175 17.2584 15.6173 17.3172 15.6061C17.376 15.5941 17.4323 15.57 17.4818 15.5361C17.5313 15.5022 17.574 15.4584 17.6066 15.408C17.9939 14.827 18.3059 14.1931 18.5312 13.5201C19.8936 13.4915 20.9989 12.3693 20.9989 11.0007C20.9989 9.63102 19.8926 8.50607 18.5283 8.48C18.3032 7.80989 17.9926 7.17922 17.6064 6.601C17.5652 6.53741 17.5079 6.48439 17.4412 6.44833C17.3746 6.41227 17.2989 6.39326 17.2231 6.39356H17.2231ZM18.4799 9.38833C19.3739 9.38833 20.0901 10.1061 20.0901 11.0007C20.0901 11.8952 19.3745 12.6108 18.4799 12.6108C18.4229 12.6108 18.3709 12.6085 18.3271 12.6042C18.2859 12.5924 18.243 12.5867 18.2001 12.5869C17.4441 12.455 16.8698 11.7987 16.8698 11.0007C16.8698 10.1061 17.586 9.38833 18.4799 9.38833Z" fill="white" stroke="white" strokeWidth="0.5"/>
<path fill-rule="evenodd" clip-rule="evenodd" d="M10.9998 15.9609C9.91361 15.9609 8.98057 16.6532 8.62973 17.6238C8.08624 17.4289 7.57337 17.1699 7.09978 16.8547C7.05028 16.8208 6.99401 16.7969 6.93527 16.7848C6.87654 16.7727 6.81539 16.7723 6.75651 16.7848C6.69762 16.7961 6.64108 16.8194 6.59115 16.8527C6.54125 16.8859 6.49802 16.9292 6.46477 16.9791C6.43155 17.029 6.40835 17.0856 6.39694 17.1445C6.38553 17.2034 6.38594 17.2645 6.39812 17.3232C6.4103 17.382 6.43425 17.4383 6.46814 17.4877C6.50202 17.5372 6.54581 17.5799 6.59617 17.6125C7.17546 17.998 7.80751 18.3096 8.47924 18.5348C8.50813 19.8966 9.63194 21.0001 10.9998 21.0001C12.3675 21.0001 13.4891 19.8963 13.5182 18.5353C14.1903 18.3112 14.8234 17.9985 15.4018 17.6121C15.4522 17.5794 15.496 17.5367 15.5299 17.4872C15.5638 17.4376 15.5877 17.3813 15.5998 17.3225C15.612 17.2637 15.6123 17.2025 15.6007 17.1436C15.5893 17.0847 15.5659 17.0281 15.5326 16.9782C15.4993 16.9282 15.4559 16.885 15.4059 16.8519C15.3559 16.8187 15.2992 16.7955 15.2403 16.7842C15.1813 16.7729 15.1201 16.7735 15.0614 16.7865C15.0026 16.7988 14.9464 16.8229 14.8969 16.857C14.4243 17.1726 13.911 17.4326 13.3683 17.6264C13.0162 16.6585 12.0856 15.9627 10.9998 15.9627L10.9998 15.9609ZM10.9998 16.8699C11.8943 16.8699 12.6099 17.5854 12.6099 18.48C12.6099 19.3745 11.8943 20.0901 10.9998 20.0901C10.1053 20.0901 9.38748 19.3739 9.38748 18.48C9.38748 18.4078 9.3926 18.3358 9.40248 18.2667L9.40509 18.2524C9.40598 18.2476 9.4068 18.2426 9.40753 18.2378C9.52252 17.4628 10.1867 16.8699 10.9998 16.8699V16.8699Z" fill="white" stroke="white" strokeWidth="0.5"/>
</svg>
