<svg width="8" height="8" viewBox="0 0 8 8" fill="none" xmlns="http://www.w3.org/2000/svg">
<rect width="8" height="8" fill="#E5E5E5"/>
<g clip-path="url(#clip0)">
<rect width="768" height="1024" transform="translate(-228 545) rotate(-90)" fill="black"/>
<g clip-path="url(#clip1)">
<path d="M13 -2.93745C13 -4.07523 12.0752 -5 10.9375 -5H-2.93745C-4.07523 -5 -5 -4.07523 -5 -2.93745V10.9375C-5 12.0752 -4.07523 13 -2.93745 13H10.9375C12.0752 13 13 12.0752 13 10.9375V-2.93745Z" fill="#D70000"/>
<mask id="path-2-outside-1" maskUnits="userSpaceOnUse" x="-0.678711" y="-0.677658" width="9" height="9" fill="black">
<rect fill="white" x="-0.678711" y="-0.677658" width="9" height="9"/>
<path d="M4.65058 4.00089L7.54372 1.10774C7.72347 0.928148 7.72347 0.636748 7.54372 0.457153C7.36397 0.277405 7.07288 0.277405 6.89313 0.457153L3.99999 3.3503L1.10669 0.457153C0.926941 0.277405 0.635848 0.277405 0.4561 0.457153C0.276352 0.636748 0.276352 0.928148 0.4561 1.10774L3.3494 4.00089L0.4561 6.89403C0.276352 7.07363 0.276352 7.36503 0.4561 7.54462C0.545974 7.63434 0.663761 7.67928 0.781395 7.67928C0.899028 7.67928 1.01682 7.63434 1.10669 7.54447L3.99999 4.65132L6.89313 7.54447C6.983 7.63434 7.10079 7.67928 7.21843 7.67928C7.33606 7.67928 7.45385 7.63434 7.54372 7.54447C7.72347 7.36487 7.72347 7.07347 7.54372 6.89388L4.65058 4.00089Z"/>
</mask>
<path d="M4.65058 4.00089L7.54372 1.10774C7.72347 0.928148 7.72347 0.636748 7.54372 0.457153C7.36397 0.277405 7.07288 0.277405 6.89313 0.457153L3.99999 3.3503L1.10669 0.457153C0.926941 0.277405 0.635848 0.277405 0.4561 0.457153C0.276352 0.636748 0.276352 0.928148 0.4561 1.10774L3.3494 4.00089L0.4561 6.89403C0.276352 7.07363 0.276352 7.36503 0.4561 7.54462C0.545974 7.63434 0.663761 7.67928 0.781395 7.67928C0.899028 7.67928 1.01682 7.63434 1.10669 7.54447L3.99999 4.65132L6.89313 7.54447C6.983 7.63434 7.10079 7.67928 7.21843 7.67928C7.33606 7.67928 7.45385 7.63434 7.54372 7.54447C7.72347 7.36487 7.72347 7.07347 7.54372 6.89388L4.65058 4.00089Z" fill="white"/>
<path d="M4.65058 4.00089L7.54372 1.10774C7.72347 0.928148 7.72347 0.636748 7.54372 0.457153C7.36397 0.277405 7.07288 0.277405 6.89313 0.457153L3.99999 3.3503L1.10669 0.457153C0.926941 0.277405 0.635848 0.277405 0.4561 0.457153C0.276352 0.636748 0.276352 0.928148 0.4561 1.10774L3.3494 4.00089L0.4561 6.89403C0.276352 7.07363 0.276352 7.36503 0.4561 7.54462C0.545974 7.63434 0.663761 7.67928 0.781395 7.67928C0.899028 7.67928 1.01682 7.63434 1.10669 7.54447L3.99999 4.65132L6.89313 7.54447C6.983 7.63434 7.10079 7.67928 7.21843 7.67928C7.33606 7.67928 7.45385 7.63434 7.54372 7.54447C7.72347 7.36487 7.72347 7.07347 7.54372 6.89388L4.65058 4.00089Z" stroke="white" strokeWidth="0.6" mask="url(#path-2-outside-1)"/>
</g>
</g>
<defs>
<clipPath id="clip0">
<rect width="768" height="1024" fill="white" transform="translate(-228 545) rotate(-90)"/>
</clipPath>
<clipPath id="clip1">
<rect width="18" height="18" fill="white" transform="translate(-5 -5)"/>
</clipPath>
</defs>
</svg>
